<svg width="300" height="97" viewBox="0 0 300 97" fill="none" xmlns="http://www.w3.org/2000/svg">
<path d="M101.7 56.48C99.62 56.48 97.76 56.06 96.08 55.22C94.4 54.38 93.08 53.24 92.12 51.82C91.14 50.38 90.66 48.78 90.66 47.02C90.66 44.64 91.24 42.78 92.42 41.42C93.58 40.08 95.6 39.12 98.44 38.58C101.28 38.02 105.2 37.76 110.18 37.76H112.16V35.12C112.16 31.94 111.54 29.62 110.3 28.18C109.06 26.72 107.08 26 104.34 26C102.36 26 100.5 26.28 98.74 26.86C97 27.44 95.18 28.36 93.28 29.64L91.96 27.26C93.64 26.06 95.56 25.14 97.74 24.44C99.92 23.76 102.08 23.42 104.2 23.42C107.86 23.42 110.56 24.36 112.3 26.26C114.04 28.16 114.92 31.12 114.92 35.12V55.96H112.2V50C111.28 52.02 109.9 53.62 108.06 54.76C106.22 55.9 104.1 56.48 101.68 56.48H101.7ZM101.9 53.96C103.92 53.96 105.7 53.46 107.22 52.48C108.74 51.48 109.94 50.14 110.82 48.44C111.7 46.74 112.14 44.82 112.14 42.66V40.22H110.28C105.92 40.22 102.52 40.4 100.12 40.78C97.72 41.16 96.04 41.82 95.1 42.76C94.16 43.7 93.68 45.04 93.68 46.76C93.68 48.88 94.42 50.6 95.9 51.96C97.38 53.3 99.38 53.98 101.88 53.98L101.9 53.96Z" fill="#425566"/>
<path d="M118.92 55.96V9.3H121.7V38.74H121.84L138.44 23.92H142.4L124.86 39.46L144.18 55.94H140.28L121.82 40.26H121.68V55.94H118.9L118.92 55.96Z" fill="#425566"/>
<path d="M144.28 55.96V23.92H147.06V55.94H144.28V55.96Z" fill="#425566"/>
<path d="M151.18 55.96V23.92H153.9V29.88C154.96 27.72 156.5 26.1 158.5 25.02C160.5 23.94 162.74 23.4 165.22 23.4C172.86 23.4 176.66 27.46 176.66 35.58V55.96H173.88V35.84C173.88 32.44 173.2 29.96 171.82 28.36C170.46 26.78 168.24 25.98 165.2 25.98C161.8 25.98 159.08 27.02 157.02 29.12C154.96 31.22 153.94 34.02 153.94 37.56V55.96H151.16H151.18Z" fill="#425566"/>
<path d="M181.54 77.86L170.3 45.84H173.34L183.14 74.56L193.46 45.84H196.9L206.96 74.56L217.02 45.84H220L208.62 77.86H205.38L195.2 49.14L184.88 77.86H181.58H181.54Z" fill="#425566"/>
<path d="M232.5 78.4C229.58 78.4 227.06 77.72 224.92 76.34C222.78 74.98 221.12 73.06 219.96 70.58C218.8 68.12 218.2 65.2 218.2 61.84C218.2 58.48 218.78 55.58 219.96 53.1C221.12 50.64 222.78 48.72 224.92 47.34C227.06 45.98 229.58 45.28 232.5 45.28C235.42 45.28 237.94 45.96 240.08 47.34C242.22 48.7 243.88 50.62 245.04 53.1C246.2 55.58 246.8 58.48 246.8 61.84C246.8 65.2 246.22 68.1 245.04 70.58C243.88 73.06 242.22 74.96 240.08 76.34C237.94 77.7 235.42 78.4 232.5 78.4ZM232.5 75.82C236.02 75.82 238.82 74.6 240.86 72.14C242.92 69.7 243.94 66.26 243.94 61.86C243.94 57.46 242.92 54.02 240.86 51.58C238.8 49.14 236.02 47.9 232.5 47.9C228.98 47.9 226.24 49.12 224.16 51.58C222.08 54.02 221.06 57.46 221.06 61.86C221.06 66.26 222.1 69.7 224.16 72.14C226.24 74.58 229.02 75.82 232.5 75.82Z" fill="#425566"/>
<path d="M249.18 77.86V45.84H251.9V51.66C252.86 49.64 254.24 48.1 256.04 47.06C257.82 46.02 260.1 45.4 262.88 45.18L264.26 45.04L264.6 47.56L262.36 47.82C259.1 48.12 256.54 49.24 254.72 51.12C252.88 53.02 251.98 55.54 251.98 58.66V77.84H249.2L249.18 77.86Z" fill="#425566"/>
<path d="M264.96 77.86V31.22H267.74V60.66H267.88L284.48 45.84H288.44L270.9 61.38L290.22 77.86H286.32L267.86 62.18H267.72V77.86H264.94H264.96Z" fill="#425566"/>
<path d="M90.56 77.94V45.66H96.92V51.02C98 49.08 99.48 47.6 101.38 46.58C103.26 45.56 105.38 45.06 107.72 45.06C115.22 45.06 118.96 49.38 118.96 58.02V77.94H112.4V58.42C112.4 55.64 111.86 53.62 110.8 52.34C109.74 51.06 108.08 50.42 105.82 50.42C103.18 50.42 101.06 51.26 99.48 52.96C97.9 54.66 97.1 56.9 97.1 59.68V77.94H90.54H90.56Z" fill="#2BA5D9"/>
<path d="M139.52 78.54C134.22 78.54 130.06 77.06 127.02 74.08C123.98 71.1 122.46 67.04 122.46 61.88C122.46 58.58 123.14 55.66 124.48 53.12C125.82 50.58 127.68 48.62 130.08 47.2C132.46 45.78 135.2 45.08 138.28 45.08C142.74 45.08 146.24 46.5 148.8 49.34C151.36 52.18 152.64 56.1 152.64 61.08V63.32H128.96C129.44 70.02 133 73.38 139.62 73.38C141.48 73.38 143.3 73.1 145.08 72.52C146.86 71.94 148.56 71 150.14 69.68L152.12 74.32C150.66 75.64 148.78 76.68 146.5 77.42C144.2 78.16 141.9 78.54 139.56 78.54H139.52ZM138.52 49.76C135.74 49.76 133.54 50.62 131.9 52.34C130.26 54.06 129.28 56.36 128.92 59.22H146.98C146.84 56.22 146.06 53.9 144.6 52.24C143.14 50.58 141.12 49.76 138.52 49.76Z" fill="#2BA5D9"/>
<path d="M170.68 78.54C166.62 78.54 163.6 77.5 161.62 75.44C159.64 73.36 158.64 70.36 158.64 66.44V50.82H152.36V45.66H158.64V35.94H165.32V45.66H175.32V50.82H165.32V65.9C165.32 68.24 165.82 70 166.8 71.2C167.8 72.4 169.42 72.98 171.66 72.98C172.36 72.98 173.04 72.9 173.72 72.74C174.38 72.58 175.04 72.4 175.7 72.18L176.76 77.2C176.1 77.6 175.18 77.92 174.02 78.16C172.86 78.4 171.74 78.52 170.68 78.52V78.54Z" fill="#2BA5D9"/>
<path d="M83 24.08C79.04 29.66 72.56 34 64.98 35.54C60.9 36.46 56.58 36.54 52.66 37.68C46.38 39.64 42.54 44.44 38.24 48.62H38.22C38.22 48.62 38.08 48.7 37.98 48.64C37.92 48.6 37.92 48.54 37.96 48.5C41 43.28 44.84 37.7 51.46 35.32C55.82 33.78 60.64 33.78 65.14 32.84C70.8 31.74 75.88 29.12 80.22 25.9C81.02 25.36 82.02 24.48 82.78 23.92C82.84 23.88 82.96 23.88 83.02 23.92C83.08 24 83.08 24.06 83.02 24.12L83 24.08Z" fill="#425566"/>
<path d="M38.08 60.46C50.48 59.94 59 58.12 66.6 49.86C67.4 48.98 68.26 48 68.98 47.06C69.3 46.62 69.76 46.04 70.1 45.6C70.56 44.94 71.22 44.02 71.68 43.34C75.88 37.06 78.96 30.42 82.74 23.94C82.76 23.88 82.88 23.82 82.96 23.88C83.02 23.9 83.08 23.98 83.04 24.02C82.3 26.34 81.56 28.66 80.7 30.94C76.5 41.78 70.36 55.28 55.94 59.62C50.26 61.32 44.02 61.32 38.04 60.7C37.96 60.7 37.9 60.64 37.9 60.56C37.92 60.5 37.98 60.46 38.08 60.46Z" fill="#425566"/>
<path d="M79.42 61.88C75.06 75.2 61.48 84.08 46.66 84.24C41.46 84.26 36.22 83.3 31.46 81.28C23.38 77.84 16.7 71.6 13.2 63.94C7.25998 51.38 10.36 36.24 21.08 26.74C26.64 21.72 34.22 18.46 41.76 18.06C41.84 18.06 41.94 18.12 41.94 18.2C41.94 18.28 41.88 18.34 41.8 18.36C28.5 20.34 17.1 30.22 14.08 42.48C11.62 51.92 14.08 62.34 20.66 69.82C32.2 83.38 53.86 85.64 68.46 74.9C73.14 71.48 76.86 66.92 79.18 61.8C79.2 61.72 79.3 61.7 79.38 61.72C79.4 61.72 79.44 61.8 79.4 61.88H79.42Z" fill="#425566"/>
<path d="M74.82 69.82C73.08 72.66 70.8 75.16 68.1 77.16C67.86 77.34 67.32 77.76 67.08 77.94C66.9 78.06 65.5 78.96 65.26 79.1C63.26 80.26 61.12 81.18 58.96 81.9C57.3 82.44 55.58 82.8 53.84 83.08C52.8 83.2 51.38 83.36 50.34 83.4C50.04 83.42 49.3 83.42 49 83.46C27.62 83.4 11.24 63.22 18.62 43.08C21.1 36.52 26.12 30.88 32.6 27.88C32.68 27.82 32.78 27.86 32.84 27.94C32.86 28 32.84 28.08 32.78 28.14C30.96 29.32 29.26 30.68 27.76 32.18C10.28 50.22 22.64 78.02 47.1 80.62C47.4 80.64 48.84 80.76 49.12 80.8H50.34C52.18 80.82 54.16 80.62 56 80.34C56.74 80.16 57.66 80.02 58.38 79.82C59.3 79.58 60.6 79.18 61.48 78.84C62.5 78.5 63.5 78.04 64.46 77.56C68.36 75.66 71.82 72.94 74.54 69.64C74.6 69.58 74.68 69.56 74.78 69.62C74.84 69.64 74.86 69.76 74.8 69.82H74.82Z" fill="#425566"/>
</svg>
